<?xml version="1.0" standalone="no"?>
<!DOCTYPE svg PUBLIC "-//W3C//DTD SVG 20010904//EN"
 "http://www.w3.org/TR/2001/REC-SVG-20010904/DTD/svg10.dtd">
<svg version="1.0" xmlns="http://www.w3.org/2000/svg"
 width="1952.000000pt" height="1952.000000pt" viewBox="0 0 1952.000000 1952.000000"
 preserveAspectRatio="xMidYMid meet">
<metadata>
Created by potrace 1.14, written by Peter Selinger 2001-2017
</metadata>
<g transform="translate(0.000000,1952.000000) scale(0.100000,-0.100000)"
fill="#000000" stroke="none">
<path d="M16377 13033 c-4 -3 -19 -7 -34 -8 -70 -7 -138 -17 -145 -21 -5 -3
-22 -7 -38 -9 -78 -10 -373 -94 -455 -131 -16 -7 -59 -25 -95 -39 -71 -29
-257 -120 -274 -134 -6 -5 -33 -21 -61 -36 -27 -15 -78 -47 -113 -71 -35 -24
-67 -44 -72 -44 -6 0 -10 -3 -10 -7 0 -5 -17 -19 -38 -33 -20 -14 -39 -27 -42
-30 -3 -3 -40 -35 -84 -70 -43 -36 -101 -87 -128 -113 l-49 -49 -192 1 c-106
1 -201 2 -212 2 -60 0 -662 0 -675 0 -8 0 -145 0 -305 0 -159 0 -294 0 -300 0
-123 0 -524 0 -535 0 -8 0 -94 -1 -190 -1 -96 -1 -179 -1 -185 0 -5 2 -14 1
-20 0 -26 -5 -875 -1 -885 5 -5 3 -10 3 -10 -2 0 -8 -285 -7 -307 1 -7 3 -13
2 -13 -2 0 -4 -69 -6 -152 -4 -186 3 -141 3 -348 2 -96 -1 -179 -1 -185 0 -5
2 -14 1 -20 0 -26 -5 -875 -1 -885 5 -5 3 -10 3 -10 -2 0 -8 -285 -7 -307 1
-7 3 -13 2 -13 -2 0 -4 -69 -6 -152 -4 -186 3 -141 3 -348 2 -96 -1 -179 -1
-185 0 -5 2 -14 1 -20 0 -5 -1 -233 -1 -505 -1 -272 1 -504 2 -515 2 -11 0
-150 0 -310 0 -159 0 -297 0 -305 0 -8 0 -159 0 -335 0 -176 0 -327 0 -335 0
-8 0 -145 0 -305 0 -159 0 -297 0 -305 0 -379 -2 -522 -1 -530 4 -5 3 -10 3
-10 -2 0 -8 -285 -7 -307 1 -7 3 -13 2 -13 -2 0 -4 -69 -6 -152 -4 -186 3
-141 3 -348 2 -96 -1 -179 -1 -185 0 -5 2 -14 1 -20 0 -26 -5 -875 -1 -885 5
-5 3 -10 3 -10 -2 0 -8 -285 -7 -307 1 -7 3 -13 2 -13 -2 0 -7 -272 -6 -302 2
-10 2 -18 1 -18 -2 0 -8 -287 -5 -307 2 -7 3 -13 2 -13 -2 0 -4 -69 -6 -152
-4 -186 3 -141 3 -348 2 -96 -1 -179 -1 -185 0 -5 1 -32 1 -60 0 -157 -6 -765
-4 -765 3 0 4 -8 4 -18 -1 -9 -5 -35 -13 -57 -17 -22 -4 -49 -12 -60 -18 -11
-6 -26 -12 -34 -13 -8 -2 -17 -6 -20 -11 -3 -4 -18 -14 -33 -22 -44 -23 -117
-100 -151 -160 -72 -126 -66 99 -66 -2626 -1 -2017 2 -2459 13 -2500 16 -60
58 -155 68 -155 5 0 8 -5 8 -11 0 -17 93 -104 142 -133 65 -38 144 -62 213
-66 117 -5 15121 -3 15155 3 218 37 402 246 396 450 -1 26 2 47 6 47 3 0 3 12
0 28 -9 33 -8 75 2 91 4 6 4 11 -1 11 -4 0 -8 25 -8 55 0 30 4 55 8 55 5 0 5
5 1 11 -10 16 -11 209 -1 209 4 0 4 7 -1 16 -5 9 -7 25 -4 36 4 15 10 17 41
12 20 -4 41 -9 46 -13 6 -3 19 -7 30 -8 18 -2 83 -15 95 -18 8 -2 112 -17 145
-21 17 -2 59 -7 95 -11 36 -4 157 -7 270 -7 202 0 275 5 425 29 99 16 108 17
210 41 11 3 31 7 45 10 13 3 29 9 36 15 6 5 13 6 16 4 7 -8 231 67 240 80 4 5
8 7 8 3 0 -21 387 166 477 230 17 12 34 22 38 22 4 0 17 8 30 18 12 9 33 24
45 32 164 110 323 250 522 461 23 24 167 208 196 251 100 145 196 315 257 458
20 47 42 99 50 115 38 87 113 340 130 434 3 19 8 37 10 40 2 4 6 27 10 51 10
69 15 103 20 130 25 130 26 606 1 736 -3 12 -7 39 -10 60 -14 88 -37 203 -56
274 -12 41 -22 82 -24 90 -12 47 -50 159 -61 180 -7 14 -14 28 -14 33 0 4 -8
23 -16 43 -8 20 -15 38 -15 40 0 1 -14 33 -32 71 -18 37 -32 70 -33 73 -1 13
-107 200 -116 205 -5 4 -7 10 -4 14 2 5 -4 16 -15 26 -11 10 -20 22 -20 27 0
24 -192 277 -289 382 -125 133 -257 257 -265 248 -3 -3 -6 -1 -6 5 0 6 -35 37
-77 69 -43 33 -80 61 -83 64 -12 12 -129 89 -167 110 -24 13 -43 27 -43 32 0
4 -9 8 -20 8 -11 0 -20 4 -20 9 0 5 -17 16 -37 25 -21 9 -45 20 -53 26 -83 54
-436 192 -575 226 -137 33 -218 50 -278 58 -27 4 -59 10 -70 13 -30 8 -703 14
-710 6z"/>
</g>
</svg>
