<svg width="122" height="41" viewBox="0 0 122 41" fill="none" xmlns="http://www.w3.org/2000/svg">
<g clip-path="url(#clip0)">
<g clip-path="url(#clip1)">
<rect y="5" width="100" height="35.8333" fill="#003578"/>
<path d="M22.1219 13.3582C22.3135 13.3582 22.4789 13.4278 22.6182 13.5671C22.7575 13.7064 22.8271 13.8718 22.8271 14.0634V15.0037C22.8271 15.1952 22.7575 15.3606 22.6182 15.4999C22.4789 15.6392 22.3135 15.7089 22.1219 15.7089H17.2376V30.9365C17.2376 31.1281 17.1679 31.2935 17.0286 31.4328C16.8893 31.5721 16.7239 31.6417 16.5324 31.6417H15.4615C15.2699 31.6417 15.1045 31.5721 14.9652 31.4328C14.8259 31.2935 14.7562 31.1281 14.7562 30.9365V15.7089H9.87191C9.68037 15.7089 9.51495 15.6392 9.37564 15.4999C9.23634 15.3606 9.16669 15.1952 9.16669 15.0037V14.0634C9.16669 13.8718 9.23634 13.7064 9.37564 13.5671C9.51495 13.4278 9.68037 13.3582 9.87191 13.3582H22.1219Z" fill="white"/>
<path d="M28.2949 27.5149L26.9367 30.9888C26.7799 31.4241 26.4404 31.6417 25.918 31.6417H24.9516C24.7949 31.6417 24.6556 31.5895 24.5337 31.485C24.4292 31.3631 24.377 31.2238 24.377 31.0671C24.377 30.98 24.4118 30.8582 24.4814 30.7014L30.8807 14.2201C31.1071 13.6455 31.4988 13.3582 32.0561 13.3582H33.6232C34.1804 13.3582 34.5722 13.6455 34.7986 14.2201L41.1717 30.7014C41.2414 30.8582 41.2762 30.98 41.2762 31.0671C41.2762 31.2238 41.2153 31.3631 41.0934 31.485C40.9889 31.5895 40.8583 31.6417 40.7016 31.6417H39.7352C39.2128 31.6417 38.8732 31.4241 38.7165 30.9888L37.3583 27.5149H28.2949ZM36.4441 25.1641L32.8396 15.8395L29.209 25.1641H36.4441Z" fill="white"/>
<path d="M55.8166 29.291C56.0081 29.291 56.1735 29.3606 56.3128 29.4999C56.4521 29.6393 56.5218 29.8047 56.5218 29.9962V30.9365C56.5218 31.1281 56.4521 31.2935 56.3128 31.4328C56.1735 31.5721 56.0081 31.6417 55.8166 31.6417H45.186C44.9944 31.6417 44.829 31.5721 44.6897 31.4328C44.5504 31.2935 44.4807 31.1281 44.4807 30.9365V14.0634C44.4807 13.8718 44.5504 13.7064 44.6897 13.5671C44.829 13.4278 44.9944 13.3582 45.186 13.3582H46.2569C46.4484 13.3582 46.6138 13.4278 46.7531 13.5671C46.8924 13.7064 46.9621 13.8718 46.9621 14.0634V29.291H55.8166Z" fill="white"/>
<path d="M61.8869 27.5149L60.5287 30.9888C60.3719 31.4241 60.0324 31.6417 59.51 31.6417H58.5436C58.3869 31.6417 58.2476 31.5895 58.1257 31.485C58.0212 31.3631 57.969 31.2238 57.969 31.0671C57.969 30.98 58.0038 30.8582 58.0734 30.7014L64.4727 14.2201C64.6991 13.6455 65.0908 13.3582 65.6481 13.3582H67.2152C67.7724 13.3582 68.1642 13.6455 68.3906 14.2201L74.7637 30.7014C74.8334 30.8582 74.8682 30.98 74.8682 31.0671C74.8682 31.2238 74.8073 31.3631 74.6854 31.485C74.5809 31.5895 74.4503 31.6417 74.2936 31.6417H73.3272C72.8048 31.6417 72.4652 31.4241 72.3085 30.9888L70.9503 27.5149H61.8869ZM70.0361 25.1641L66.4316 15.8395L62.801 25.1641H70.0361Z" fill="white"/>
<path d="M85.3601 13.3582C87.171 13.3582 88.6685 13.8283 89.8526 14.7686C91.0541 15.7089 91.6548 17.0845 91.6548 18.8955C91.6548 20.1144 91.3675 21.1504 90.7929 22.0037C90.2357 22.8569 89.4782 23.4925 88.5205 23.9104C87.5802 24.3283 86.5267 24.5373 85.3601 24.5373H80.5541V30.9365C80.5541 31.1281 80.4844 31.2935 80.3451 31.4328C80.2058 31.5721 80.0404 31.6417 79.8489 31.6417H78.778C78.5864 31.6417 78.421 31.5721 78.2817 31.4328C78.1424 31.2935 78.0727 31.1281 78.0727 30.9365V14.0634C78.0727 13.8718 78.1424 13.7064 78.2817 13.5671C78.421 13.4278 78.5864 13.3582 78.778 13.3582H85.3601ZM85.2295 22.1865C86.5006 22.1865 87.4757 21.9166 88.1548 21.3768C88.8339 20.8196 89.1735 19.9925 89.1735 18.8955C89.1735 16.7711 87.8588 15.7089 85.2295 15.7089H80.5541V22.1865H85.2295Z" fill="white"/>
</g>
<circle cx="104.433" cy="17.4331" r="17.5" transform="rotate(-15 104.433 17.4331)" fill="#2FDE9F"/>
<path d="M100.082 21.8453L107.5 21L114.053 20.3143L115.502 20.1555C115.601 20.1447 115.667 20.0479 115.641 19.9516L112.731 9.09046C112.705 8.99273 112.597 8.94231 112.505 8.98502L111.182 9.60097L95.6501 16.8346L97.298 22.1504L100.082 21.8453Z" fill="#003578"/>
<path d="M93.2375 18.1066L94.3698 22.3324C94.3906 22.41 94.4649 22.4609 94.5448 22.4521L95.7381 22.3213L94.4059 17.414L93.326 17.9169C93.2544 17.9503 93.217 18.0303 93.2375 18.1066Z" fill="#003578"/>
<path d="M100.082 21.8453C100.408 23.0633 102 25.625 104.5 25C107 24.375 107.449 22.0196 107.5 21M100.082 21.8453L107.5 21M100.082 21.8453L97.298 22.1504M107.5 21L114.053 20.3143L115.502 20.1555M94.3698 22.3324L93.2375 18.1066M94.3698 22.3324C94.3906 22.41 94.4649 22.4609 94.5448 22.4521M94.3698 22.3324V22.3324C94.3906 22.41 94.4649 22.4609 94.5448 22.4521V22.4521M93.2375 18.1066C93.217 18.0303 93.2544 17.9503 93.326 17.9169M93.2375 18.1066V18.1066C93.217 18.0303 93.2544 17.9503 93.326 17.9169V17.9169M93.326 17.9169L94.4059 17.414M112.505 8.98502L111.182 9.60097L95.6501 16.8346M112.505 8.98502C112.597 8.94231 112.705 8.99273 112.731 9.09046M112.505 8.98502V8.98502C112.597 8.94231 112.705 8.99273 112.731 9.09046V9.09046M112.731 9.09046L115.641 19.9516M115.641 19.9516C115.667 20.0479 115.601 20.1447 115.502 20.1555M115.641 19.9516V19.9516C115.667 20.0479 115.601 20.1447 115.502 20.1555V20.1555M94.5448 22.4521L95.7381 22.3213M95.6501 16.8346L94.9999 17.1374L94.7005 17.2768L94.4059 17.414M95.6501 16.8346L97.298 22.1504M97.298 22.1504L96.4999 22.2378L96.0432 22.2879L95.7381 22.3213M94.4059 17.414L95.7381 22.3213" stroke="#003578"/>
</g>
<defs>
<clipPath id="clip0">
<rect width="122" height="41" fill="white"/>
</clipPath>
<clipPath id="clip1">
<rect y="5" width="100" height="35.8333" rx="3" fill="white"/>
</clipPath>
</defs>
</svg>
